<?xml version="1.0" encoding="UTF-8" standalone="no"?>
<svg
   height="35.999989"
   viewBox="0 0 67.299143 23.999992"
   width="100.94872"
   fill="#ffffff"
   version="1.1"
   id="svg2"
   sodipodi:docname="menu_white_36dp.svg"
   xml:space="preserve"
   xmlns:inkscape="http://www.inkscape.org/namespaces/inkscape"
   xmlns:sodipodi="http://sodipodi.sourceforge.net/DTD/sodipodi-0.dtd"
   xmlns="http://www.w3.org/2000/svg"
   xmlns:svg="http://www.w3.org/2000/svg"><defs
     id="defs2" /><sodipodi:namedview
     id="namedview2"
     pagecolor="#ffffff"
     bordercolor="#999999"
     borderopacity="1"
     inkscape:showpageshadow="0"
     inkscape:pageopacity="0"
     inkscape:pagecheckerboard="0"
     inkscape:deskcolor="#d1d1d1" /><path
     style="fill:#ffffff;fill-opacity:1;stroke-width:2.87792"
     d="m 23.836966,23.981061 c -1.588796,-0.143528 -2.895167,-1.316647 -3.21524,-2.887267 -0.14421,-0.707692 -0.115623,-3.052629 0.04561,-3.743446 0.312439,-1.338447 1.33289,-2.342136 2.670617,-2.626746 0.381657,-0.08119 1.071785,-0.08722 9.605184,-0.08406 4.522145,0.0017 8.624898,-0.0046 9.117228,-0.0138 2.84007,-0.05357 4.48551,1.271911 4.513403,3.635723 0.01306,1.098701 -0.02072,2.495295 -0.0659,2.740693 -0.300426,1.627898 -1.399242,2.70008 -3.025632,2.952291 -0.253919,0.03936 -19.219575,0.06507 -19.64527,0.02649 z m 20.355533,-0.813892 c 0.341485,-0.04937 0.338612,-0.0864 -0.06121,-0.789705 -0.163955,-0.288399 -0.459078,-0.811237 -0.655822,-1.161863 -0.196734,-0.350628 -0.462222,-0.81312 -0.589952,-1.027759 -0.528068,-0.887403 -0.520118,-0.960466 0.216275,-1.98679 0.189854,-0.264597 0.561207,-0.799367 0.825225,-1.188369 0.264018,-0.389001 0.563552,-0.829235 0.665637,-0.978294 0.289601,-0.422873 0.271099,-0.49927 -0.134178,-0.553639 -0.509537,-0.06834 -0.673246,0.05167 -1.335096,0.978758 -1.279662,1.792526 -1.213903,1.71321 -1.391076,1.677774 l -0.06834,-0.01351 -0.0064,-1.222463 c -0.008,-1.591205 0.09612,-1.429849 -0.928168,-1.436805 -1.098758,-0.0074 -0.980546,-0.270236 -1.009762,2.244564 -0.0236,2.027605 -0.02677,2.087392 -0.13664,2.442944 -0.06984,0.22626 -0.198518,0.467681 -0.352636,0.661626 -0.309016,0.388867 -0.24727,0.732108 0.151442,0.841698 0.27248,0.07488 0.281055,0.08717 0.325003,0.465128 0.07739,0.665341 0.07473,0.663595 1.028458,0.680366 0.942218,0.01668 0.937821,0.02072 0.929621,-0.892554 -0.0064,-0.692136 0.06495,-1.402166 0.148936,-1.48616 0.03614,-0.03614 0.831971,1.282764 1.214425,2.01269 0.348756,0.665616 0.587515,0.815856 1.16413,0.732522 z m -5.861204,-0.08674 c 0.182978,-0.0872 0.190891,-0.195498 0.03025,-0.413715 -0.05205,-0.07074 -0.252078,-0.426958 -0.444445,-0.791596 -0.192362,-0.36464 -0.46457,-0.87185 -0.604891,-1.127132 -0.573645,-1.04364 -0.570889,-1.009953 -0.11209,-1.371137 1.079815,-0.850079 1.440141,-1.805321 0.998506,-2.647085 -0.476638,-0.908476 -2.526812,-1.555642 -4.260865,-1.344998 -0.538534,0.06541 -0.656248,0.227816 -0.393392,0.542671 0.246033,0.294704 0.255213,0.370175 0.258927,2.124061 0.004,1.90655 0.01172,1.846223 -0.271188,2.140378 -0.335068,0.348443 -0.324904,0.66614 0.0236,0.737223 0.254291,0.05185 0.262954,0.08104 0.259384,0.874086 -0.0028,0.630974 0.004,0.687686 0.09653,0.786924 0.08282,0.08897 0.170316,0.120952 0.324541,0.118771 0.07903,-0.0012 0.41221,-0.0057 0.740429,-0.01029 0.719362,-0.01 0.655556,-0.0039 0.740637,-0.07527 0.116321,-0.09791 0.11877,-0.115638 0.134087,-0.97999 0.01306,-0.727068 0.04284,-1.153981 0.08409,-1.19854 0.008,-0.0089 0.257547,0.384035 0.554179,0.873045 0.866078,1.427809 0.881629,1.451894 1.038502,1.608595 0.226378,0.226118 0.530018,0.284424 0.803233,0.154202 z m -2.379223,-4.029392 c -0.05606,-0.04098 -0.07494,-0.158746 -0.05574,-0.34752 0.0092,-0.09117 0.01756,-0.606376 0.01812,-1.144894 0.0018,-1.256777 -1.39e-4,-1.25245 0.480952,-1.098614 0.645258,0.206318 1.071257,0.751472 1.015528,1.299538 -0.05573,0.548137 -1.15037,1.51713 -1.458951,1.29149 z m -3.981434,3.672869 c 0.315189,-0.0859 0.301302,-0.643634 -0.01728,-0.691973 -0.03914,-0.0061 -0.334753,-0.01668 -0.656895,-0.02388 -0.909979,-0.02014 -0.893481,-0.0071 -0.889026,-0.701304 0.004,-0.628144 0.0054,-0.629211 0.884603,-0.631727 0.826267,-0.0024 0.932721,-0.04831 0.932721,-0.402656 0,-0.266381 -0.01469,-0.271907 -0.899064,-0.339382 -0.947297,-0.07227 -0.837143,0.160156 -0.856254,-1.806643 -0.01957,-2.014652 -0.127779,-1.793652 0.886227,-1.809913 0.652838,-0.01029 0.692411,-0.01351 0.751482,-0.05685 0.204705,-0.150286 0.187005,-0.677959 -0.02618,-0.780935 -0.122793,-0.05932 -4.166462,-0.04892 -4.247352,0.01098 -0.245658,0.181684 -0.150855,0.609191 0.171265,0.772428 0.319584,0.161941 0.317043,0.146749 0.310449,1.855766 -0.0066,1.724297 -0.007,1.726043 -0.302372,1.769076 -0.231529,0.03373 -0.306823,0.12487 -0.300557,0.363802 0.007,0.260998 0.06024,0.34229 0.26874,0.409237 0.295473,0.09487 0.313934,0.136462 0.305205,0.687994 l -0.007,0.431325 -0.08141,0.07457 c -0.04991,0.04571 -0.131179,0.08886 -0.209974,0.111558 -0.259357,0.07457 -0.33706,0.167061 -0.33804,0.402355 -0.0015,0.355359 -0.109539,0.335311 1.919026,0.356006 0.931824,0.0095 1.833474,0.019 2.003663,0.02072 0.1702,0.0019 0.349216,-0.0071 0.397842,-0.02072 z m -6.14696,-0.08201 c 0.150602,-0.08806 0.150633,-0.08848 0.140441,-1.120331 -0.01321,-1.325953 0.02273,-1.457696 0.501878,-1.850279 0.604818,-0.495451 0.982725,-1.713865 0.765158,-2.466948 -0.292968,-1.014067 -1.363095,-1.62554 -3.117908,-1.781587 -1.0124,-0.09002 -1.205759,-0.05296 -1.249636,0.239644 -0.02848,0.189684 0.08251,0.322249 0.336618,0.402174 0.141851,0.04463 0.282238,0.143067 0.352344,0.247098 0.06761,0.100292 0.08512,0.497522 0.08512,1.927697 -8e-6,1.555467 -0.01728,1.741385 -0.179783,1.932289 -0.240796,0.2829 -0.225716,0.525718 0.0498,0.801334 l 0.136538,0.136582 0.01029,0.570686 c 0.01812,0.995837 -0.0013,0.978838 1.143814,1.001948 0.831204,0.01668 0.934595,0.01262 1.025258,-0.04033 z m 0.05808,-4.629082 c 3.95e-4,-1.100734 0.0061,-1.121193 0.267904,-0.987549 0.561045,0.286238 0.6638,1.121949 0.195526,1.590221 -0.104985,0.104985 -0.402805,0.309048 -0.451043,0.309048 -0.007,0 -0.01262,-0.410273 -0.01232,-0.91172 z m -3.6811,2.085156 c 0.50365,-0.247961 0.574325,-0.944595 0.128968,-1.271295 -0.503273,-0.369187 -1.189204,-0.02619 -1.189142,0.5947 5.7e-5,0.567933 0.557823,0.923897 1.060167,0.676595 z m 23.262021,0.03166 c 0.210174,-0.07414 0.397768,-0.27438 0.46774,-0.499204 0.240134,-0.771516 -0.837601,-1.315417 -1.315536,-0.663918 -0.440071,0.59988 0.149937,1.409345 0.847796,1.163122 z m 7.173676,2.382747 c -2.937525,-0.08507 -4.390888,-0.583955 -3.723414,-1.278139 0.212532,-0.221052 0.14096,-0.344878 -0.255703,-0.442365 -1.185506,-0.291358 -1.388357,-1.269373 -0.806444,-3.888095 0.05962,-0.268308 0.148825,-0.685383 0.198172,-0.926804 0.14188,-0.693728 0.217572,-0.776725 0.770176,-0.844505 0.142295,-0.01756 0.547163,-0.067 0.899696,-0.110072 2.234849,-0.273114 2.158449,-0.14962 1.091323,-1.764112 -0.190978,-0.288929 -0.117315,-0.357071 0.365099,-0.337639 3.946124,0.158947 7.841691,0.127663 9.451097,-0.07592 1.142692,-0.144556 1.52827,-0.25173 1.622884,-0.451101 0.118864,-0.250494 -0.05759,-0.382417 -0.561972,-0.4201 -0.10332,-0.0078 -0.292302,-0.03246 -0.419944,-0.05497 -0.376378,-0.06636 -0.436792,-0.071 -0.569731,-0.04357 -0.225139,0.04645 -0.349198,0.137622 -0.498467,0.366288 -0.128063,0.196188 -0.255155,0.155119 -0.298306,-0.09641 -0.06555,-0.382159 -0.191176,-0.447888 -0.94005,-0.491894 -0.664133,-0.03902 -0.699265,-0.01669 -0.699328,0.446298 l -3.2e-5,0.258552 -0.08272,-0.02849 c -0.06533,-0.02273 -0.09866,-0.05603 -0.158632,-0.159091 -0.275819,-0.473849 -0.620041,-0.622718 -1.582106,-0.684221 -1.823852,-0.116584 -1.748395,-0.139722 -1.731694,0.530473 l 0.0077,0.309399 -0.06243,0.03021 c -0.144641,0.07005 -0.229889,-0.01093 -0.325798,-0.309693 -0.162834,-0.507172 -0.392878,-0.689077 -0.871626,-0.689269 -0.524019,-2.1e-4 -0.641423,0.139896 -0.466174,0.556255 0.183523,0.436044 -0.09167,0.493182 -0.368977,0.07662 -0.363514,-0.546044 -0.752574,-0.736973 -1.315576,-0.64561 -0.297191,0.04823 -0.366401,0.107805 -0.39355,0.338781 -0.03773,0.32104 -0.162688,0.339632 -0.452599,0.06735 -0.262121,-0.246176 -0.531272,-0.374548 -0.837885,-0.399595 -0.409047,-0.03342 -0.541168,-0.291602 -0.245169,-0.479078 0.210578,-0.133361 0.217743,-0.22698 0.05014,-0.656768 -0.763143,-1.9569578 -0.22514,-3.576394 0.98971,-2.9791724 0.639096,0.314179 0.698188,1.6378432 0.08724,1.9537864 -0.30062,0.1554647 -0.358941,-0.019282 -0.167925,-0.5027829 0.224766,-0.5691676 0.245746,-0.6889292 0.152378,-0.870491 -0.385977,-0.7507066 -1.234857,-0.134974 -1.190873,0.8637912 0.02792,0.6340963 0.566992,1.8365717 0.941301,2.0997257 l 0.09431,0.06631 h 0.755091 c 1.026445,0 0.964272,0.0474 0.919399,-0.701053 -0.06166,-1.0281579 0.03868,-1.7335544 0.42056,-2.9568891 0.325221,-1.0418331 0.317907,-1.6756861 -0.02331,-2.016872 C 51.794333,4.563583 51.101591,5.0705951 51.398033,5.90638 c 0.169652,0.478343 0.17935,0.5202569 0.139491,0.6038343 -0.19754,0.4142209 -0.642319,-0.2703194 -0.643679,-0.990626 -0.0018,-0.9078972 0.617367,-1.3691334 1.375991,-1.0251575 0.85235,0.3864744 0.982171,1.3372666 0.443263,3.2464454 -0.319552,1.1320673 -0.40417,1.7835665 -0.311479,2.3981078 0.08804,0.583698 0.186576,0.669592 0.791828,0.690137 0.727662,0.02475 0.775906,-0.01266 0.835579,-0.645933 0.09919,-1.0528727 0.26238,-2.1578992 0.468327,-3.1716902 0.34363,-1.6914748 0.05142,-2.6130894 -1.092228,-3.4449146 -0.20108,-0.1462499 -0.239356,-0.2265695 -0.171006,-0.3587677 0.311275,-0.6019393 1.589797,0.9016511 1.787187,2.1018003 0.111988,0.6809199 0.07022,1.0805638 -0.251847,2.4091582 -0.295323,1.2182664 -0.348425,1.5429497 -0.369344,2.2582894 -0.0236,0.8040946 9.26e-4,0.8286456 0.855312,0.8590116 0.285662,0.01007 0.730349,0.03021 0.988169,0.04458 0.805393,0.04487 0.841581,0.0084 0.612898,-0.619888 -0.544248,-1.4949692 -0.56962,-2.372796 -0.108307,-3.7465735 0.43815,-1.3047481 0.437528,-1.6212728 -0.0035,-1.7522242 -0.35133,-0.1043329 -0.45014,0.00459 -0.765882,0.8440904 -0.200936,0.5342471 -0.449532,0.5106483 -0.403864,-0.038336 0.07434,-0.8936518 0.992287,-1.4532057 1.546272,-0.9425594 0.381005,0.3511977 0.375504,0.9320126 -0.02042,2.1653094 -0.529968,1.6505033 -0.481336,2.2572682 0.292921,3.6546643 0.277632,0.501087 0.21095,0.473309 1.387602,0.577976 0.48594,0.04323 0.962208,0.08732 1.058371,0.09799 0.09615,0.01061 0.185684,0.01611 0.198921,0.01237 0.01317,-0.0041 0.05064,-0.01294 0.08317,-0.02014 0.155868,-0.03402 0.253112,-0.182287 0.336028,-0.512481 0.168416,-0.6705911 0.137247,-1.1050609 -0.127031,-1.771528 -0.544865,-1.3739445 -0.306399,-2.5133016 0.525904,-2.5127204 0.609734,4.26e-4 1.317244,1.0755855 0.784751,1.1925411 -0.13601,0.029874 -0.337533,-0.1556091 -0.417121,-0.3839021 -0.09212,-0.2642499 -0.204734,-0.3556208 -0.387831,-0.314648 -0.392072,0.087748 -0.488217,0.472821 -0.287445,1.1512974 0.238837,0.8070908 0.323869,1.1830383 0.366297,1.6192897 0.03103,0.3188238 0.01555,0.7655213 -0.03598,1.0329943 -0.106635,0.554519 4.53e-4,0.665003 0.739344,0.762797 1.544295,0.204389 2.030093,0.400168 2.349582,0.946868 0.152471,0.260911 0.242766,0.278323 0.680682,0.131348 1.926212,-0.64651 3.288512,1.059538 2.342116,2.933099 -0.494279,0.978514 -1.595581,1.828871 -3.324625,2.567071 -0.703229,0.300236 -0.959767,0.595758 -0.962114,1.108329 -7.76e-4,0.169194 -0.151871,0.356986 -0.330203,0.410416 -0.333826,0.100014 -0.598335,-0.08708 -0.776605,-0.549363 -0.156359,-0.405423 -0.298024,-0.411271 -0.625953,-0.0259 -0.59905,0.704055 -1.506898,1.415684 -2.399561,1.880929 -0.499513,0.260336 -0.528503,0.317707 -0.320542,0.634333 0.305667,0.465384 0.12962,0.640228 -0.829984,0.824296 -0.961723,0.184476 -3.284588,0.317516 -4.785163,0.274064 z m 10.48504,-5.791394 c 1.027988,-0.614541 2.216811,-2.006402 2.358413,-2.761206 0.08246,-0.439526 -0.658739,-0.71852 -1.189504,-0.447743 -0.27689,0.141248 -0.368562,0.278611 -0.580948,0.870469 -0.218477,0.608825 -0.496312,1.301542 -0.718928,1.792475 -0.325649,0.718155 -0.304499,0.806329 0.130967,0.546005 z M 12.498447,22.460856 C 11.105299,22.392236 9.816649,22.232033 9.275664,22.060138 8.869139,21.930978 8.826354,21.820725 9.024049,21.411842 9.210078,21.027064 9.200006,21.004902 8.730004,20.764564 7.896837,20.338519 7.312095,19.899689 6.538995,19.120282 5.895858,18.471904 5.899826,18.473332 5.724081,18.826958 5.446535,19.385442 5.27292,19.538829 4.987653,19.477652 4.70153,19.416292 4.581355,19.268053 4.552774,18.941205 4.507754,18.426576 4.32067,18.228885 3.581551,17.914936 1.209806,16.90753 0.00299798,15.652642 3.9833984e-6,14.190707 -0.00279602,12.748783 1.018444,11.995397 2.457072,12.378349 3.064087,12.539944 3.194279,12.504401 3.457016,12.105466 3.722648,11.702143 3.840234,11.659188 5.457282,11.374795 6.466599,11.197286 6.500063,11.172909 6.405755,10.684269 6.273522,9.9990951 6.343165,9.2308307 6.62442,8.271199 6.79839,7.6776583 6.806044,7.6479353 6.831572,7.4654469 6.927082,6.782728 6.337937,6.4971815 6.052871,7.0880257 5.852309,7.5037057 5.543904,7.6296979 5.461092,7.3297704 5.344622,6.907946 5.909911,6.3040794 6.421262,6.3040794 c 0.845809,0 1.067003,1.020741 0.532597,2.4577751 -0.355884,0.9569895 -0.279617,2.0904845 0.155693,2.3136835 0.07299,0.03741 0.262812,0.03025 0.787551,-0.02978 0.262236,-0.02999 0.658863,-0.06547 0.881395,-0.07882 0.780726,-0.04685 0.964498,-0.176705 1.321534,-0.93361 0.48836,-1.0353264 0.521989,-1.9209782 0.118949,-3.1324732 -0.501917,-1.5086674 -0.458215,-2.1643562 0.163121,-2.4473394 0.577802,-0.2631593 1.30364,0.3923251 1.317677,1.1899611 0.0086,0.4922831 -0.231843,0.4201814 -0.426943,-0.128001 -0.255704,-0.718418 -0.379465,-0.8639768 -0.681511,-0.801556 -0.44779,0.092539 -0.520007,0.6780916 -0.181222,1.4693334 0.574597,1.3419478 0.584183,2.4967853 0.03304,3.9777021 -0.26707,0.717593 -0.271733,0.711425 0.519109,0.686724 0.285747,-0.0089 0.758228,-0.02302 1.04998,-0.03137 1.090613,-0.03117 1.128483,-0.259588 0.506164,-3.0534513 -0.365572,-1.6412051 -0.394227,-2.019085 -0.20862,-2.7510953 0.269689,-1.0636137 1.417116,-2.3069134 1.712701,-1.8557908 0.08643,0.1319001 0.03463,0.2203559 -0.281344,0.4802759 -0.713872,0.5872856 -1.070457,1.2215043 -1.133385,2.0158344 -0.01871,0.236789 0.01172,0.4856819 0.154693,1.2540641 0.219758,1.1828597 0.365312,2.1287549 0.45497,2.9564369 0.106485,0.9829141 0.07163,0.9420841 0.795092,0.9316381 0.785751,-0.01124 0.883563,-0.147004 0.883963,-1.2259996 2.08e-4,-0.5511318 -0.03672,-0.7505539 -0.348602,-1.8827221 -0.51196,-1.8584684 -0.435586,-2.6492007 0.302485,-3.1317884 1.032738,-0.6752559 1.956423,0.4983227 1.347404,1.7119297 -0.305506,0.6087966 -0.593462,0.4112509 -0.369505,-0.2534895 0.279561,-0.8297938 -0.0659,-1.3658693 -0.692395,-1.0744037 -0.633321,0.2946441 -0.689219,1.0246408 -0.195122,2.5481585 0.309138,0.9532053 0.399518,1.6582739 0.332309,2.5925081 -0.04699,0.653263 0.03801,0.756677 0.621936,0.756677 1.255851,0 1.747897,-0.442191 2.053614,-1.8455474 0.148904,-0.6835705 -0.192185,-1.5361148 -0.614615,-1.5361148 -0.206866,0 -0.453191,0.1482981 -0.538395,0.3241364 -0.09284,0.1915826 -0.07764,0.2822082 0.14873,0.8871715 0.179928,0.4808617 0.09048,0.7251735 -0.17889,0.4886551 -0.575571,-0.5053587 -0.574487,-1.6228753 0.0019,-1.9169059 1.26843,-0.6471073 1.876564,0.929963 1.102141,2.8581761 -0.198202,0.493505 -0.188418,0.608417 0.06879,0.808406 0.245282,0.190719 0.168242,0.332473 -0.214462,0.394662 -0.373186,0.06064 -0.685509,0.214665 -0.975019,0.480814 -0.21239,0.195266 -0.293144,0.18623 -0.349078,-0.03897 -0.08197,-0.33001 -0.194779,-0.396128 -0.675913,-0.396128 -0.580063,0 -0.834755,0.127981 -1.05563,0.530403 -0.313997,0.572097 -0.617957,0.494469 -0.342951,-0.08757 0.178143,-0.377027 -0.143349,-0.59167 -0.678233,-0.452826 -0.418508,0.108642 -0.533265,0.218118 -0.683782,0.65227 -0.09713,0.280136 -0.161911,0.352775 -0.286781,0.321435 -0.151126,-0.03793 -0.180448,-0.172329 -0.100529,-0.460702 0.0905,-0.326508 0.03,-0.480891 -0.188387,-0.480891 -0.133851,0 -2.108886,0.1055 -2.254295,0.120412 -0.272423,0.02792 -0.468251,0.162084 -0.64648,0.442813 -0.150046,0.236334 -0.261947,0.339259 -0.405461,0.372934 L 9.02351,12.315254 9.01223,12.063062 C 8.99237,11.611828 8.9692,11.599128 8.222983,11.629251 c -0.721589,0.02912 -0.81311,0.07981 -0.863624,0.478217 -0.03232,0.25481 -0.08441,0.27415 -0.301527,0.111864 -0.410484,-0.306826 -1.112626,-0.423307 -1.678806,-0.278495 -1.023548,0.261774 -0.178458,0.774961 1.472169,0.893979 2.383822,0.171898 7.483607,0.18836 9.303067,0.03002 l 0.296352,-0.02591 0.05174,0.06018 c 0.10071,0.117044 0.07849,0.168703 -0.357656,0.831294 -0.669057,1.016475 -0.701211,0.970291 0.829362,1.191199 0.504488,0.0728 1.095963,0.153283 1.314386,0.178807 0.843363,0.09853 0.886404,0.185853 1.291637,2.619482 0.333322,2.001765 0.118859,2.718293 -0.899253,3.004546 -0.353625,0.09942 -0.424831,0.144033 -0.424831,0.26612 0,0.07614 0.09212,0.234406 0.186862,0.32096 0.484288,0.442527 -0.378827,0.898012 -1.988197,1.049219 -1.036975,0.09743 -3.000857,0.147105 -3.956325,0.100036 z M 4.486336,16.782371 c 0,-0.04659 -0.156994,-0.459713 -0.475221,-1.250546 C 3.825232,15.069886 3.626036,14.542745 3.568456,14.360401 3.29842,13.505225 2.987269,13.285324 2.242182,13.423061 1.474316,13.564998 1.77758,14.50823 2.993794,15.760757 c 0.487389,0.501942 1.492542,1.189946 1.492542,1.021614 z m 42.906121,-0.261457 c -0.02388,-0.0213 -0.0917,-0.103314 -0.150363,-0.182346 -1.085985,-1.462412 -3.232769,-2.717915 -6.401492,-3.743782 -0.750541,-0.242982 -0.795737,-0.277892 -0.7158,-0.552847 0.06596,-0.226866 0.205972,-0.283388 0.44985,-0.181568 0.06953,0.02904 0.315401,0.119634 0.546371,0.201368 0.230981,0.0817 1.026655,0.36719 1.768189,0.63439 0.741535,0.267185 1.519777,0.544788 1.729431,0.616866 0.209656,0.07209 0.463277,0.168041 0.56361,0.213224 0.470498,0.211959 0.509753,0.177884 0.885468,-0.768224 0.589505,-1.484488 1.103269,-2.696489 1.143037,-2.696489 0.06847,0 0.860886,0.685366 1.303315,1.12722 0.747648,0.746678 2.020381,2.349589 2.298555,2.894856 0.120744,0.23668 0.02102,0.269084 -1.193244,0.387612 -1.507192,0.147112 -1.747005,0.278668 -1.812795,0.994341 -0.07142,0.777081 -0.240851,1.208818 -0.414128,1.055389 z m -27.661955,-0.02792 c -0.07573,-0.05955 -0.215009,-0.620028 -0.269115,-1.082673 -0.08725,-0.746386 -0.37916,-0.874608 -2.340815,-1.028238 -0.782209,-0.06127 -0.803103,-0.11393 -0.328899,-0.829123 0.829703,-1.251351 2.878055,-3.424625 3.228144,-3.425022 0.129339,-1.47e-4 0.412317,0.623316 1.208781,2.663253 0.355414,0.910295 0.338159,0.901975 1.204852,0.580851 0.717718,-0.265919 1.808408,-0.661067 3.003665,-1.088185 0.590822,-0.211123 1.151562,-0.414592 1.24609,-0.452145 0.326724,-0.129795 0.486582,-0.03427 0.489893,0.292749 0.0019,0.187382 -0.01007,0.194375 -0.775609,0.451107 -3.250171,1.090051 -5.253552,2.247291 -6.313591,3.647016 -0.251299,0.331824 -0.263472,0.341145 -0.35341,0.27041 z m 25.258432,-3.375362 c -0.105071,-0.02618 -0.842087,-0.310446 -2.077623,-0.801317 -1.373809,-0.545802 -2.191461,-0.856708 -2.818052,-1.071539 -4.632007,-1.5881075 -9.075094,-1.4591396 -14.200774,0.412203 -0.36469,0.133132 -1.100698,0.399458 -1.635577,0.591808 -0.534876,0.19236 -1.228647,0.445294 -1.541711,0.562103 -0.955172,0.356383 -0.79417,0.505905 -1.59198,-1.478456 C 20.466763,9.6996646 20.116027,8.8400059 19.531594,7.4313653 L 19.086846,6.3594004 19.085898,6.1383765 c -0.0015,-0.3636405 0.106143,-0.5146385 0.872098,-1.2228891 5.722729,-5.29148853 15.565775,-6.4729009 22.925341,-2.7516158 1.901789,0.9616193 4.634238,2.9463168 5.078367,3.6886398 0.212935,0.3558927 0.221196,0.3272107 -0.961619,3.335992 -0.324965,0.8266286 -0.778365,1.9901366 -1.007557,2.5855756 -0.53534,1.390817 -0.579067,1.449356 -1.003594,1.343553 z m -0.770268,-1.28631 c 0.161278,-0.09834 0.251529,-0.420368 0.144878,-0.516903 -0.05134,-0.04644 -0.543946,-0.289897 -0.656534,-0.324446 -0.460589,-0.141334 -0.475044,-0.312398 -0.09992,-1.1826011 0.502722,-1.1662253 1.862671,-4.422481 1.934615,-4.6322336 0.147952,-0.4313559 0.04202,-0.6663929 -0.416816,-0.9247426 -0.469644,-0.26444 -0.504967,-0.2394568 -0.809977,0.5728919 -0.111839,0.2978295 -0.658916,1.7449816 -1.215761,3.2158946 -0.556839,1.4709129 -1.023676,2.7164938 -1.037407,2.7679588 -0.05229,0.195986 -0.09045,0.172963 1.348365,0.812257 0.603221,0.268021 0.682513,0.288796 0.808582,0.211929 z m -19.28952,-0.513535 c 1.123182,-0.357333 1.408934,-1.13738 0.857799,-2.3416369 -0.231413,-0.5056206 -0.3275,-0.5543552 -0.794042,-0.4026719 -0.441076,0.1434076 -0.448697,0.1660555 -0.264422,0.7852646 0.200993,0.6754552 0.202548,0.6814842 0.202548,0.7863872 0,0.211469 -0.239242,0.327756 -0.375112,0.182315 -0.09336,-0.09995 -1.082114,-2.2087549 -2.150814,-4.5872358 -0.247932,-0.5518209 -0.23101,-0.7829755 0.06936,-0.9462832 0.343197,-0.1865894 0.352151,-0.1774982 0.800002,0.8120752 0.186747,0.4126635 0.263416,0.4656213 0.532887,0.3680982 0.06491,-0.023484 0.188215,-0.062979 0.274006,-0.08776 0.825221,-0.2383057 0.377314,-1.6852649 -0.592454,-1.9139131 -0.814828,-0.1921179 -2.094838,0.443743 -2.338099,1.1614789 -0.131551,0.3881466 -0.02764,0.730088 0.702261,2.3085061 0.14614,0.316064 0.382588,0.8332595 0.525449,1.1493233 1.105252,2.4452544 1.639256,3.0159874 2.550609,2.7260454 z m 16.887547,-0.588281 c 0.04176,-0.03382 0.05266,-0.07793 0.07792,-0.314958 0.02764,-0.259156 0.114763,-0.8830757 0.720707,-5.1602641 0.293772,-2.0736805 0.292163,-2.0443028 0.120121,-2.195366 -0.07261,-0.063764 -0.103539,-0.077164 -0.43197,-0.1870987 -0.09116,-0.030521 -0.225454,-0.0811 -0.298382,-0.1123999 -0.362742,-0.1556662 -0.539012,-0.044021 -0.808975,0.5123874 -0.725564,1.4954211 -1.528206,3.4350975 -2.310596,5.5838337 -0.361532,0.9928972 -0.363679,0.9653383 0.08509,1.0916155 0.424964,0.1195781 0.568741,0.067227 0.670513,-0.2441911 0.07233,-0.2212539 0.478087,-1.2662328 0.52595,-1.354455 0.09561,-0.1762149 0.248996,-0.1994108 0.54454,-0.082366 0.43669,0.1729625 0.504678,0.316392 0.390209,0.8231838 -0.168502,0.7460385 -0.212822,1.2758304 -0.11843,1.4158924 0.114689,0.170171 0.704134,0.328741 0.833281,0.224161 z M 40.944196,7.4530435 C 40.662564,7.3337537 40.650301,7.258813 40.83494,6.7852035 c 0.530139,-1.3597883 0.606583,-1.5112151 0.71538,-1.417145 0.02504,0.021612 -0.197108,2.0487893 -0.230002,2.098963 -0.04861,0.074193 -0.179467,0.06933 -0.376134,-0.014101 z M 27.269033,10.338816 c 0.288337,-0.07848 0.712138,-0.191957 0.941783,-0.252192 0.539199,-0.1414212 0.554973,-0.1540258 0.554973,-0.4436673 0,-0.3524579 -0.28143,-0.4121286 -0.983555,-0.2085335 -0.345613,0.1002102 -0.468862,0.02216 -0.561906,-0.3564209 C 27.199308,8.9929033 27.108488,8.658178 27.018297,8.3341597 26.580224,6.7603987 26.574526,6.7840841 27.472798,6.4447694 27.826939,6.3110051 27.891806,6.2211758 27.817889,5.9669151 27.735809,5.6846148 27.68401,5.6726271 27.130211,5.8077693 26.338873,6.0008715 26.362041,6.0156986 26.137572,5.1724475 26.058162,4.8742015 25.93327,4.4131361 25.859969,4.1478578 25.659551,3.4224825 25.672933,3.3742025 26.113513,3.2315235 27.183635,2.8849745 27.238567,2.842845 27.138505,2.4454537 27.065125,2.1540279 26.428778,2.2536092 25.284674,2.7355603 c -0.949072,0.3997931 -0.974487,0.4270984 -0.832329,0.8942075 0.04253,0.1397979 0.152045,0.512775 0.243327,0.8288391 0.188965,0.6542815 0.777937,2.6106093 1.300871,4.3210133 0.195124,0.638206 0.374083,1.2343568 0.397693,1.3247808 0.112299,0.430102 0.134222,0.435975 0.8748,0.234435 z M 29.56174,9.6175823 c 0.34673,-0.064092 0.494688,-0.2448241 0.450814,-0.5506397 -0.0077,-0.054708 -0.03544,-0.2586094 -0.06132,-0.4530987 -0.04739,-0.3560814 -0.393749,-2.6852369 -0.410028,-2.7572704 -0.0138,-0.061355 0.01587,-0.046149 0.127321,0.06546 0.133004,0.1329806 0.193193,0.2625148 0.275215,0.592084 0.09811,0.3941734 0.591039,2.2086458 0.655238,2.4118666 0.122629,0.3881499 0.356036,0.4982071 0.910764,0.4294163 0.543491,-0.0674 0.506728,0.2864675 0.319465,-3.0749379 -0.0863,-1.5490594 -0.177249,-3.2391807 -0.202087,-3.7558236 -0.06444,-1.3391717 -0.06852,-1.3478168 -0.63858,-1.3481217 -0.570414,-3.047e-4 -0.720975,0.153441 -0.667676,0.6818036 0.0846,0.8388578 0.255098,2.949532 0.241544,2.9902529 C 30.51148,5.0013848 30.278562,4.4378329 29.592785,2.5025364 29.20939,1.4205622 29.174964,1.3927371 28.4439,1.5739172 c -0.550318,0.136387 -0.674387,0.2175012 -0.728049,0.4759873 -0.03131,0.150857 -0.03798,0.1014005 0.166546,1.2372661 0.190372,1.0574037 0.443682,2.5106711 0.695338,3.9894787 0.09826,0.5774245 0.21308,1.2508332 0.255154,1.496463 0.136849,0.7989719 0.252164,0.9325935 0.728884,0.8444689 z m 8.579374,-0.03327 c 0.115135,-0.08533 0.156265,-0.1780853 0.247012,-0.5568619 0.285056,-1.1899795 0.370418,-1.8708476 0.3499,-2.7908443 -0.01172,-0.5298028 -0.0095,-0.592394 0.02446,-0.6429458 0.02072,-0.030802 0.08646,-0.1288529 0.146051,-0.2178926 0.213656,-0.3190621 0.339959,-0.7250959 0.412531,-1.326066 0.02418,-0.2005791 0.06029,-0.479069 0.08015,-0.6188666 0.07904,-0.5560302 0.06098,-0.9995011 -0.04954,-1.2176201 -0.210233,-0.4148727 -1.213269,-0.7838555 -2.63642,-0.9698477 -0.677492,-0.088542 -0.624798,-0.2131442 -0.766214,1.8117276 -0.133673,1.9139535 -0.25907,3.6117101 -0.35582,4.8176562 -0.0812,1.0122428 -0.08196,1.1130791 -0.0092,1.2326967 0.101707,0.1672354 0.508504,0.258897 0.7209,0.1624295 0.170058,-0.077214 0.189136,-0.1492775 0.284511,-1.0739854 0.103346,-1.0022016 0.259042,-2.2545436 0.291992,-2.3488487 0.08099,-0.2317527 0.510124,-0.2118893 0.712645,0.032983 0.177652,0.2148047 0.175724,0.267813 -0.06703,1.847148 -0.2631,1.7116532 -0.263414,1.7202868 -0.06926,1.834327 0.157659,0.092582 0.571469,0.1076057 0.683201,0.02475 z M 37.309835,4.9671867 C 36.99055,4.9140447 36.968859,4.8088002 37.075946,3.8322088 c 0.03019,-0.2754622 0.07552,-0.7095551 0.100721,-0.964651 0.07204,-0.7294312 0.07995,-0.7382014 0.597481,-0.6631428 0.620269,0.089958 0.645347,0.2574927 0.296367,1.9800703 -0.179293,0.885033 -0.17466,0.8802434 -0.76067,0.7827014 z m -3.381027,4.2426638 c 0.259674,-0.091604 0.261371,-0.1005841 0.286353,-1.5022131 0.09039,-5.0784344 0.105896,-5.6518327 0.154978,-5.7325322 0.05538,-0.09104 0.192448,-0.1154828 0.622913,-0.111073 0.394071,0.00402 0.431334,-0.0076 0.508413,-0.1587601 0.259904,-0.5096939 -0.424371,-0.71116596 -2.299944,-0.6771799 -1.176967,0.021325 -1.420156,0.1082953 -1.390668,0.497323 0.01986,0.2622211 0.09661,0.2984148 0.595515,0.2808468 0.458817,-0.016146 0.543246,0.00466 0.63823,0.1574729 l 0.05326,0.085694 0.02216,3.4479702 c 0.02446,3.826921 0.01202,3.5484915 0.163782,3.6565225 0.127883,0.091086 0.463087,0.1201537 0.645078,0.055918 z"
     id="path5"
     inkscape:export-filename="LOGOSITE"
     inkscape:export-xdpi="96"
     inkscape:export-ydpi="96" /></svg>
